<svg style="display: none" xmlns="http://www.w3.org/2000/svg">
<symbol id="doc" viewBox="0 0 40 43"><path d="M16 23.4V22c0-.4.3-.7.6-.7h14.2c.3 0 .6.3.6.7v1.3c0 .3-.3.6-.6.6H16.6a.6.6 0 01-.6-.6zM16.6 26.6h14.2c.3 0 .6.3.6.6v1.3c0 .4-.3.7-.6.7H16.6a.6.6 0 01-.6-.7v-1.3c0-.3.3-.6.6-.6zM16.6 31.7h14.2c.3 0 .6.3.6.7v1.3c0 .3-.3.6-.6.6H16.6a.6.6 0 01-.6-.6v-1.3c0-.4.3-.7.6-.7z"/><path fill="#fff" fill-rule="evenodd" d="M8.3 15.3A7.4 7.4 0 1115.5 6h12.7c1 0 2.6.6 3.3 1.4l6.3 6.2c.7.8 1.3 2.3 1.3 3.3v23.2c0 1-.8 2-1.9 2h-27c-1 0-2-1-2-2V15.3zm2.6-.4c2.6-1 4.5-3.4 4.8-6.3h10.6v8.3c0 1.1.8 2 2 2h8.3v20.5H10.9V15zm18.8-5.7l-.8-.5v7.6h7.5l-.4-.8-6.3-6.3zM9.3 8.9h4v-2h-4v-4h-2v4h-4v2h4v4h2v-4z" clip-rule="evenodd"/></symbol>

<symbol id="mail" viewBox="0 0 16 13"><path d="M14.8 10.8c0 .2-.2.3-.3.3H2.2a.3.3 0 01-.3-.3V4.4l.6.6L6 7.8C6.7 8.3 7.4 9 8.3 9c.9 0 1.7-.7 2.3-1.2a114.8 114.8 0 014.2-3.4v6.4zm0-8.7c0 .7-.7 1.6-1.3 2l-3.3 2.7c-.5.3-1.3 1.1-1.9 1.1-.6 0-1.4-.8-1.8-1.1L3 4A3 3 0 012 1.7c0-.1.1-.2.3-.2h12.3c.3 0 .3.3.3.6zm1-.4c0-.7-.6-1.3-1.3-1.3H2.2C1.4.4.8 1 .8 1.7v9.1c0 .8.6 1.4 1.4 1.4h12.3c.7 0 1.3-.6 1.3-1.4v-9z"/></symbol>

<symbol id="money" viewBox="0 0 39 27"><path d="M15.7 18.5v-1.9h2.6v-5.8L17.2 12l-1.6-1.6 3-2.8h2.3v9h2.5v2h-7.7zM26 13.4C26 9.7 23.8 5 19.6 5s-6.4 4.7-6.4 8.4c0 3.6 2.2 8.3 6.4 8.3S26 17 26 13.4zm10.3 5.1a5.2 5.2 0 00-5.1 5.2H8c0-2.9-2.3-5.2-5.1-5.2V8.2C5.7 8.2 8 6 8 3.2h23.2c0 2.7 2.3 5 5.1 5v10.3zm2.6-16.7c0-.7-.6-1.3-1.3-1.3h-36C.9.5.3 1.1.3 1.8V25c0 .7.6 1.3 1.3 1.3h36c.7 0 1.3-.6 1.3-1.3V1.8z"/></symbol>

<symbol id="percent" viewBox="0 0 31 32"><path d="M25.8 24c0 1.4-1.2 2.5-2.6 2.5a2.6 2.6 0 01-2.6-2.5c0-1.4 1.2-2.6 2.6-2.6 1.4 0 2.6 1.2 2.6 2.6zM10.4 8.5c0 1.4-1.2 2.6-2.6 2.6a2.6 2.6 0 01-2.6-2.6C5.2 7.1 6.4 6 7.8 6c1.4 0 2.6 1.1 2.6 2.5zM30.9 24a7.7 7.7 0 10-15.4 0 7.7 7.7 0 0015.4 0zM29 2c0-.7-.6-1.3-1.3-1.3h-3.2c-.4 0-.8.2-1 .5L2.3 29.6c-.2.3-.3.5-.3.8 0 .7.6 1.3 1.3 1.3h3.2c.4 0 .8-.2 1-.5L28.7 2.9c.2-.3.3-.5.3-.8zM15.5 8.5a7.7 7.7 0 10-15.4 0 7.7 7.7 0 0015.4 0z"/></symbol>

<symbol id="qiwi" viewBox="0 0 21 20"><path d="M17 13.5c0 .3-.2.5-.3.5l-.5-.5c-.2-.3-.3-.6-.2-.8l.2-.1h.2c.3.1.5.6.5.9zm-2 .8c.4.3.6.7.3 1a.7.7 0 01-.5.3 1 1 0 01-.6-.3c-.4-.3-.5-.8-.3-1a.5.5 0 01.5-.3l.6.3zm-.7 3.2c1.8 0 3.7.6 5.8 2.4.2.2.5 0 .3-.2a9 9 0 00-5.9-3.5 6.4 6.4 0 01-4.4-3.1c-.1-.3-.2-.3-.2 0v1.7h-.2c-1.2 0-2.4-.4-3.4-1A6 6 0 014.1 11a5.7 5.7 0 011.3-6.4A6.1 6.1 0 0112 3.5a6 6 0 012.8 2.1 5.7 5.7 0 011 4h-2c-.2 0-.2 0 0 0 2 .4 3.4 1.6 3.7 3.8a8.7 8.7 0 00-1.2-10.7A9.5 9.5 0 005.2 1.2a9 9 0 00-4 4.2A8.6 8.6 0 004.1 16a9.4 9.4 0 005.6 1.9c1.3 0 2.7-.3 4.6-.3z"/></symbol>

<symbol id="search" viewBox="0 0 33 33"><path d="M24 15a9 9 0 11-18 0 9 9 0 0118 0zm10.2 16.6c0-.6-.3-1.3-.7-1.8l-7-6.9A14.1 14.1 0 0015 .8a14.1 14.1 0 108 25.8l7 6.9c.4.4 1 .7 1.7.7 1.4 0 2.6-1.2 2.6-2.6z"/></symbol>

<symbol id="vk" viewBox="0 0 12 14"><path d="M11.2 9.3c0 .6-.1 1.2-.4 1.7-.2.5-.6.9-1 1.2-.5.4-1 .7-1.6.8-.6.2-1.3.3-2.2.3H.7V.3h6.8c.5 0 1 .2 1.4.5.5.2.8.6 1 1 .3.4.4.9.4 1.4A3 3 0 019.8 5c-.3.5-.7.8-1.3 1v.1c.8.2 1.5.5 2 1 .4.6.7 1.3.7 2.2zM7 3.9c0-.2 0-.4-.2-.6a1 1 0 00-.5-.5 36 36 0 00-2-.2H4v2.8h1.6l.7-.2.5-.5.2-.8zm.8 5.3c0-.4 0-.7-.2-1l-.8-.4-.8-.2H4V11h.2a59 59 0 002.7-.3c.3 0 .6-.3.7-.5l.2-.9z"/></symbol>

<symbol id="web_money" viewBox="0 0 19 18"><path d="M9.3 0A9.1 9.1 0 0114 1.2l-.9.7L11.8.6l-2.1 2-1.3-1.4-4 3.5L7 7.4l-1 .8L8.5 11l-1 .8 3.6 4 2-2 1.9 2-1.2.8A9 9 0 01.3 8.8a9 9 0 019-8.8zM7.7 8.3l2.1-1.9 2 2.2-2.2 1.9-2-2.2zM9.2 12l2.2-1.9 1.9 2.1-2.2 2L9.2 12zm-3-7.3l2.1-1.9 2 2.1L8 7 6 4.7zm3.9-1l1.6-1.4 1.4 1.6-1.6 1.4-1.4-1.6zm2.9 6.6l1.6-1.5 1.4 1.6-1.6 1.5-1.4-1.6zm1.4 3.2L16 12l1.4 1.6-1.6 1.5-1.4-1.6zM15 6l1-1 1 1.1-1 1-1-1zM13.6 3l1.1-1 1 1-1.1 1-1-1zm2.8 6.3l1-1 1 1-1 1-1-1zm-4.8-2.4l1.6-1.4L14.6 7 13 8.5l-1.4-1.6z"/></symbol>

<symbol id="yandex_money" viewBox="0 0 15 18"><path fill-rule="evenodd" d="M.8 9c0-1 0-1.7 2.1-3.2L10.1.2v7.2h4.1v10.4H2.1c-.7 0-1.3-.6-1.3-1.3V8.9z" clip-rule="evenodd"/><path fill-opacity=".2" fill-rule="evenodd" d="M10 7.4v4.2l-7.5 5.1 9.6-3V7.3h-2z" clip-rule="evenodd"/><path fill-rule="evenodd" d="M6.6 7.2c.4-.5 1-.7 1.4-.4.4.3.3 1-.1 1.5-.5.5-1.1.7-1.5.4-.3-.3-.3-1 .2-1.5z" clip-rule="evenodd"/></symbol>

<symbol id="file" viewBox="0 0 18 21"><path d="M16.8 4.6l-3.5-3.5a3 3 0 00-1.8-.7h-10a1 1 0 00-1 1v17.9c0 .6.4 1 1 1h15c.6 0 1-.4 1-1V6.4a3 3 0 00-.7-1.8zm-5-2.7l.5.2 3.5 3.5.3.5h-4.2V1.9zm4.3 17H2V1.8h8.5v4.6c0 .6.5 1.1 1.1 1.1h4.6V19zM4.7 9.3v.7c0 .2.2.4.4.4h7.8c.2 0 .4-.2.4-.4v-.7c0-.2-.2-.4-.4-.4H5.1c-.2 0-.4.2-.4.4zm8.2 2.5H5.1c-.2 0-.4.2-.4.4v.7c0 .2.2.3.4.3h7.8c.2 0 .4-.1.4-.3v-.7c0-.2-.2-.4-.4-.4zm0 2.9H5.1c-.2 0-.4.1-.4.3v.7c0 .2.2.4.4.4h7.8c.2 0 .4-.2.4-.4V15c0-.2-.2-.3-.4-.3z"/></symbol>

</svg>
